#!OML:ASF E:/inclinewalkrobotboard/Project1/Captureday1/Session1/subject1.ASF
:FULLY-SPECIFIED
:DEGREES
63
root 0 0 0 -2.9245201047606635 -4.74669928847168 -6.032850615785956
lowerback 9.710149786267914 2.703916579565958 2.8815013192905248
upperback -4.20192146712853 3.9726331379652216 0.25153049508721737
thorax -9.876461283655773 1.8446526161711747 -1.9217645577866116
lowerneck -17.5145757668894 -4.31060795400625 -0.8545038395724175
upperneck 1.4299674788624106 -6.094011768463311 2.463193514511088
head 3.316078846766002 -2.853520640812979 0.40650773234928517
rclavicle -3.040507056695468E-15 -3.278871937297693E-15
rhumerus 7.110508267152774 -20.865188490681966 -52.67460274086042
rradius 80.13923833177171
rwrist -4.374882161575383
rhand -20.620633778087576 4.003447631420661
rfingers 7.125019999999949
rthumb 5.757479938289366 -25.99065989797218
lclavicle 1.8210495248532624E-16 -5.273416311868098E-15
lhumerus -41.920992869531936 2.2386103872901226 75.58549018653723
lradius 35.67500874507943
lwrist 9.05372258889989
lhand -25.737255876634286 21.273831731818515
lfingers 7.125019999999968
lthumb 0.8121156095998874 51.17316366581698
rfemur -9.708520061243773 3.695802788382853 19.16090981994062
rtibia 27.6753194655385
rfoot -6.192067704314891 -4.9141492890540235
rtoes 2.871379665750017
lfemur -17.448297701922137 2.6048704716639435 -12.691179398832336
ltibia 34.93440428036228
lfoot -8.855735439654747 0.3780906597367153
ltoes -33.20833856096967
64
root 0 0 0 -3.0654619270949883 -4.726716615194198 -6.053988747768612
lowerback 9.868730458935904 2.731733327073009 2.8456714367433307
upperback -3.891082033160452 4.0090495927161225 0.23376512727075982
thorax -9.638385252454611 1.8618587510339333 -1.9186810677309856
lowerneck -17.12619027744316 -4.376839542107385 -0.8446442151155422
upperneck 0.9689274110997683 -6.189245514218928 2.6237578136215447
head 3.0978729452224147 -2.8948863711899797 0.4581883101033436
rclavicle -3.704112460593785E-15 -3.5971185045491934E-15
rhumerus 18.434765086388104 -17.492123111285295 -42.87563101941801
rradius 96.50161961447695
rwrist -16.457474988781016
rhand -20.400073877611334 0.5835584551500261
rfingers 7.125019999999946
rthumb 5.973706836421268 -29.350406183269
lclavicle -8.708626868856639E-16 -5.526752279782964E-15
lhumerus -42.29712103231934 2.1292686630903894 75.39454384764379
lradius 36.34095764576623
lwrist 9.216620239256821
lhand -25.568274684336636 20.667921430753506
lfingers 7.125019999999968
lthumb 0.9768891889694054 50.56806507037386
rfemur -9.57851440210695 3.651586564134595 18.933797919000206
rtibia 27.32984181619513
rfoot -6.118117148772272 -4.851892224909083
rtoes 2.840210580666897
lfemur -17.67102453493168 2.705634372067852 -12.516999879556208
ltibia 34.98169993822408
lfoot -8.901476423175017 0.4649885849587818
ltoes -33.85571349495862
65
root 0 0 0 -3.282998311397252 -4.743670531105888 -6.025601754614906
lowerback 10.100393155887797 2.73960213477595 2.757959513681496
upperback -3.482592125279389 4.015303645752252 0.23252774511789698
thorax -9.339148820714394 1.8664753484901317 -1.8624829876891096
lowerneck -16.645459162124702 -4.446689726194716 -0.8312103000630852
upperneck 0.48160063198542424 -6.278785120315091 2.7901642962474273
head 2.8564304746744718 -2.936146959041772 0.5125525091214307
rclavicle -4.650839060355582E-15 -3.2480169851976862E-15
rhumerus 25.81169228291528 -14.608392258760283 -35.9734156837717
rradius 109.87699369070813
rwrist -26.45924759047358
rhand -20.111433077597454 -3.8658946771067972
rfingers 7.125019999999952
rthumb 6.260788150880151 -33.763076310216654
lclavicle -2.1523614157476235E-15 -5.504676496162036E-15
lhumerus -42.61222411340197 1.9942101259623621 75.23349370153669
lradius 36.99441001338681
lwrist 9.353602972867503
lhand -25.39876441033733 20.0200850925386
lfingers 7.125019999999967
lthumb 1.1423937320173332 49.92271401313205
rfemur -9.432323767900531 3.6024318957497603 18.677933567403954
rtibia 26.936675253041358
rfoot -6.038659442495051 -4.782698320680858
rtoes 2.802705615477383
lfemur -17.89709742228776 2.8479853608020225 -12.318289753483636
ltibia 35.040473649498836
lfoot -8.96803452503304 0.5573488005733496
ltoes -34.64408727854879
66
root 0 0 0 -3.5324587139581323 -4.758504912848428 -5.973985065226451
lowerback 10.295564436224947 2.7476624367584215 2.6559365566331428
upperback -2.9995247137008803 4.0201923480703865 0.23892902704313024
thorax -8.941226936934832 1.8721484613583326 -1.7865027362859376
lowerneck -16.08779099661742 -4.529050849678862 -0.8550539086688973
upperneck 0.1403545772870718 -6.387837178324187 3.0184426687645063
head 2.6496537747982023 -2.9836934021991204 0.5907575724205563
rclavicle -5.362945337616618E-15 -2.4594684104283917E-15
rhumerus 28.857342134712027 -12.517318087599339 -32.76646118712497
rradius 117.63243443216354
rwrist -31.7185206293153
rhand -19.640616288806797 -7.950394208576092
rfingers 7.125019999999964
rthumb 6.72687658561562 -37.801015747957656
lclavicle -3.3849866940660845E-15 -5.214252310695799E-15
lhumerus -42.86478027768764 1.8712053567911346 75.13976769560783
lradius 37.55944088545811
lwrist 9.415436446258306
lhand -25.20997410151888 19.32116844671904
lfingers 7.125019999999966
lthumb 1.3263531031347044 49.228193573199114
rfemur -9.298514551480054 3.5561303217937024 18.435384654351047
rtibia 26.567963200682694
rfoot -5.9647446694563815 -4.718534453592668
rtoes 2.766087669440127
lfemur -18.05961287708587 2.9714102289175255 -12.109120848704249
ltibia 35.05794510429473
lfoot -9.101527779034 0.6940617472901347
ltoes -35.54472450940143
